<svg xmlns="http://www.w3.org/2000/svg" viewBox="0 0 512 512" fill="#6d4135" xmlns:v="https://vecta.io/nano"><path d="M511.6 147.38a20.48 20.48 0 0 0-20.08-24.5H139.67l-17.19-85.94a20.48 20.48 0 0 0-20.08-16.46H20.48a20.48 20.48 0 1 0 0 41h65.13l37.67 188.35v.18l12.77 63.86h0l7.67 38.35a20.48 20.48 0 0 0 20.08 16.46h286.76a20.48 20.48 0 0 0 20.08-16.46L491.08 250v-.21zm-45.06 16.46l-12.29 61.44h-294.1l-11.5-57.47-.79-4zM180.63 327.68l-12.29-61.44h277.72l-12.29 61.44z"/><circle cx="225.28" cy="450.56" r="40.96"/><circle cx="389.12" cy="450.56" r="40.96"/></svg>