<svg xmlns="http://www.w3.org/2000/svg" width="50" height="26.91" fill="#fff" xmlns:v="https://vecta.io/nano"><path d="M42.835 8.288V6.122H7.165v2.166h12.627v15.025l-2.352 3.596h2.352 10.416 2.352l-2.352-3.596V8.288zM48.359.415v12.393h-.479-.861-7.533a1.71 1.71 0 0 0-1.709 1.709h9.242 1.341v.128h-9.125-1.456v1.871V26.91h1.456v-6.684h9.125v6.684H50V.415h-1.641zm0 18.748h-9.125v-2.647h9.125v2.647zM0 .415v26.494h1.641v-6.684h9.125v6.684h1.456V16.516v-1.871h-1.456-9.125v-.128h1.341 9.242a1.71 1.71 0 0 0-1.709-1.709H2.981 2.12h-.479V.415H0zm1.641 16.101h9.125v2.647H1.641v-2.647z"/></svg>