<svg xmlns="http://www.w3.org/2000/svg" width="19.199" height="19.199" fill="#fff" xmlns:v="https://vecta.io/nano"><path d="M12.225 13.192l1.217-3.223h-2.898-1.889-2.899l1.219 3.223-2.416 6.02h4.096 1.889 4.097z"/><path d="M7.392 7.412c-1.001-.799-2.019-1.277-2.249-1.051s.252 1.248 1.05 2.25a4.73 4.73 0 0 0 .397.44c.133.137.28.271.44.397 1.002.799 2.019 1.278 2.249 1.051s-.252-1.248-1.05-2.25a4.23 4.23 0 0 0-.397-.438 4.26 4.26 0 0 0-.44-.399zm5.615 1.199c.798-1.002 1.277-2.019 1.05-2.25s-1.248.252-2.249 1.051c-.161.128-.308.261-.44.398l-.397.438c-.799 1.002-1.277 2.019-1.05 2.25s1.247-.252 2.249-1.051c.161-.127.307-.261.438-.397.137-.132.271-.278.399-.439z"/><path d="M9.336 3.373h.527v7.619h-.527z"/><path d="M13.335 1.465A5.3 5.3 0 0 0 13.129 0l-1.5 1.287L9.6 0h0 0 0 0L7.57 1.287 6.07 0a5.3 5.3 0 0 0-.206 1.465c0 2.48 1.671 4.491 3.735 4.493h0 0 0 0c2.065-.002 3.736-2.013 3.736-4.493z"/></svg>