<svg xmlns="http://www.w3.org/2000/svg" width="85.501" height="85.874" xmlns:v="https://vecta.io/nano"><path d="M25.907 44.935c-1.159.366-2.353.649-3.622.749l-1.751.14-1.792.06h-3.34V15.28h5.25c2.177 0 4.225.378 6.149 1.135s3.603 1.816 5.034 3.182a15.25 15.25 0 0 1 3.405 4.857c.829 1.86 1.244 3.896 1.249 6.108H51.81c-.008-2.756-.368-5.398-1.09-7.919-.73-2.546-1.751-4.923-3.063-7.125s-2.899-4.19-4.757-5.968a31.02 31.02 0 0 0-6.148-4.578C34.51 3.7 32.096 2.718 29.51 2.029S24.237.993 21.451.993H1.829c-.608 0-1.068.173-1.372.518S0 2.308 0 2.862V58.46c0 .688.186 1.139.559 1.351s.792.318 1.271.318h19.62c1.516 0 2.997-.12 4.458-.319V44.935z" fill="#729350"/><path d="M24.117 23.497V84.88h61.384V23.497H24.117zM80.69 75.412c0 .781-.441 1.173-1.325 1.173h-8.537c-.926 0-1.407-.441-1.449-1.329l-2.624-23.312-6.788 23.467c-.039.198-.184.442-.437.721s-.495.424-.739.424h-7.933c-.24 0-.496-.137-.768-.406-.271-.276-.417-.52-.437-.739L42.865 52 40.24 75.255c-.038.888-.533 1.329-1.477 1.329h-8.538c-.864 0-1.296-.441-1.296-1.329l4.312-42.136c.043-.36.182-.671.423-.936.244-.258.585-.393 1.026-.393h10.438c.744 0 1.224.386 1.449 1.148l8.203 27.39 8.266-27.39c.279-.763.792-1.148 1.539-1.148H74.9c.36 0 .689.127.979.378s.459.569.499.95l2.157 21.068 2.155 21.067v.159z" fill="#935138"/></svg>