<svg xmlns="http://www.w3.org/2000/svg" width="27.384" height="19.059" fill="#fff" xmlns:v="https://vecta.io/nano"><path d="M9.156 7.39c-.552.183-.616.917-.348 1.723.262.833.762 1.34 1.302 1.164.545-.18.618-.843.33-1.717-.263-.796-.697-1.363-1.284-1.17zm5.938 1.35c-.551.183-.616.915-.348 1.724.258.82.761 1.341 1.3 1.16.559-.182.62-.841.331-1.713-.266-.807-.693-1.363-1.283-1.171zm12.29-4.086L21.206 0 0 7.007l3.981 12.052 21.206-7.004.006.022 2.191-7.423zM7.782 9.5c-.448-1.359.041-2.514 1.147-2.878 1.138-.377 2.09.239 2.52 1.533.499 1.515-.135 2.568-1.119 2.894-1.007.334-2.077-.17-2.548-1.549zm3.571 4.561l1.711-8.806.775-.256-1.715 8.806-.771.256zm4.916-1.663c-.995.329-2.077-.172-2.54-1.564-.444-1.349.041-2.518 1.132-2.878 1.141-.374 2.099.252 2.526 1.548.495 1.502-.123 2.566-1.118 2.894z"/></svg>