<svg xmlns="http://www.w3.org/2000/svg" width="40.434" height="26.911" fill="#fff" xmlns:v="https://vecta.io/nano"><path d="M36.617 13.866H3.816C1.708 13.866 0 15.574 0 17.682v3.816h20.558 19.876v-3.816c0-2.108-1.708-3.816-3.817-3.816zM0 21.795v1.81h1.502v3.32h1.502v-3.32H37.43v3.32h1.502v-3.32h1.502v-1.81zm8.608-8.387c.166-1.061 1.446-1.889 3.021-1.889h4.962c1.573 0 2.854.828 3.021 1.889h1.212c.167-1.061 1.447-1.889 3.021-1.889h4.962c1.574 0 2.854.828 3.021 1.889h4.499V.029H4.108v13.379h4.5z"/></svg>