<svg xmlns="http://www.w3.org/2000/svg" width="50" height="26.911" fill="#fff" xmlns:v="https://vecta.io/nano"><path d="M48.647 10.99c-.32.11-.681.16-1.061.21-.46.06-.979.13-1.54.32-1.6.54-3.33 1.44-4.05 2.06.77-.12 3.15-.42 3.84.37.55.63.47 4.68-.13 6.66-.271.87-.62 1.35-1.08 1.48-1.01.28-9.729.32-15.3.32-1.94 0-3.5 0-4.21-.01h-.24-.36l-3.84.01c-5.569 0-14.3-.04-15.31-.32-.46-.13-.811-.61-1.07-1.48-.6-1.98-.68-6.03-.13-6.66.68-.78 3.05-.49 3.83-.37-.73-.62-2.45-1.52-4.04-2.06-.56-.19-1.08-.26-1.55-.32-.37-.05-.74-.1-1.05-.21-.33.73-1.051 3.08-.271 8.64.61 4.31 1.16 5.23 1.42 5.39.061.03.101.03.26-.03.12-.04.28-.1.45-.07.58.07 15.601.11 21.66.12h.24l21.67-.12c.17-.03.32.03.45.07.16.06.199.06.25.03.27-.16.819-1.08 1.42-5.39.792-5.56.062-7.91-.258-8.64zm-10.02-.43c-.33.66-.22 1.27.34 1.88a4.24 4.24 0 0 0 .96.76l.49.33c.21.12.38.18.58.18.479-1.12 3.47-2.43 4.81-2.89.63-.21 1.21-.29 1.69-.35 1-.14 1.32-.21 1.4-.88.149-1.21-1.69-2.27-2.2-2.45-.15-.05-.351-.08-.601-.08-2.159 0-6.689 1.96-7.469 3.5zm7.97 14.85h-4.13c-.3 0-.56.12-.729.31-.11.12-.181.27-.181.44 0 .42.41.75.91.75h4.13c.511 0 .91-.33.91-.75 0-.141-.05-.28-.13-.39-.16-.21-.45-.36-.78-.36zm-5.79-10.86c-.05-.01-.1-.03-.149-.04-4.221-1.07-13.561 0-15.41.22v6.94c7.33.02 18.21-.02 19.189-.29.101-.03.271-.21.44-.64.72-1.83.68-5.85.39-6.32-.29-.33-2.149-.33-3.369-.07-.2.04-.381.07-.54.08a.63.63 0 0 1-.41.13c-.051 0-.091 0-.141-.01zm-15.2-3.37l.189 1.2c1.09-.13 6.46-.53 12.05-.32-.229-.59-.189-1.21.12-1.83.71-1.4 3.47-2.81 5.78-3.48.06-.74.25-3.22-.01-4.26-.271-1.08-2.051-1.83-2.49-1.75-.64.14-11.12.15-13.5.02-1.98-.1-2.2.76-2.21.8l.01 9.08.061.54zm-1.37 1.95c-.261-.05-6.181-.58-12.551-.32-.029.05-.069.09-.109.13-.29.32-.62.57-.88.74 3.09-.2 10.239-.53 14.2.35.899-.11 9.029-1.14 14.119-.55-.199-.15-.409-.33-.6-.54a.69.69 0 0 1-.11-.13c-6.359-.26-12.29.27-12.54.32-.029.01-.069.01-.1.01-.1 0-.2-.04-.29-.1-.19-.14-.3-.4-.38-.83-.08.43-.18.69-.37.83a.54.54 0 0 1-.3.1c-.029 0-.059 0-.089-.01zm-14.95 1.39c-.08.03-.16.04-.24.04-.149 0-.29-.04-.399-.13-.16-.01-.341-.04-.54-.08-1.221-.26-3.08-.26-3.381.09-.279.45-.329 4.47.4 6.3.16.43.33.61.44.64.96.26 11.64.32 18.949.28v-6.95c-4.8-.99-14.3-.27-15.17-.2-.029.01-.059.01-.059.01zm2.75-4.29c.31.61.35 1.23.11 1.82 5.6-.2 10.96.2 12.05.33.08-.24.149-.81.2-1.2l.06-.54c.1-.74.04-6.3 0-9.14-.01 0-.22-.75-1.86-.75-.109 0-.22 0-.34.01-2.39.13-12.859.12-13.51-.02-.41-.08-2.21.67-2.48 1.75-.26 1.04-.069 3.52-.01 4.26 2.31.67 5.07 2.08 5.78 3.48z"/><path d="M2.507 10.47c.47.06 1.061.14 1.68.35 1.36.46 4.4 1.8 4.841 2.89.18 0 .34-.06.529-.16.011-.01.03-.01.04-.02l.13-.12c.08-.06.12-.1.171-.12.159-.08.699-.38 1.14-.85.56-.61.67-1.22.34-1.88-.78-1.54-5.31-3.5-7.479-3.5a1.92 1.92 0 0 0-.591.08c-.51.18-2.35 1.24-2.199 2.45.078.67.398.74 1.398.88zm5.02 14.94h-4.13c-.341 0-.631.15-.78.38-.09.11-.13.24-.13.37 0 .42.41.75.91.75h4.13c.51 0 .909-.33.909-.75 0-.17-.069-.32-.18-.45-.169-.18-.429-.3-.729-.3z"/></svg>