<svg xmlns="http://www.w3.org/2000/svg" fill="#000000" viewBox="0 0 26 26" width="52" height="52" xmlns:v="https://vecta.io/nano"><path d="M10 .188a9.81 9.81 0 1 0 0 19.625c2.289 0 4.395-.809 6.063-2.125l.875.875c-.367.691-.238 1.574.344 2.156l4.594 4.625c.715.715 1.879.715 2.594 0l.875-.875c.715-.715.715-1.879 0-2.594l-4.625-4.594a1.82 1.82 0 0 0-2.156-.312l-.875-.875c1.324-1.672 2.125-3.793 2.125-6.094A9.81 9.81 0 0 0 10 .188zM10 2a8 8 0 1 1 0 16 8 8 0 1 1 0-16zM4.938 7.469c-.516.836-.812 1.82-.812 2.875a5.46 5.46 0 0 0 5.469 5.469c1.168 0 2.266-.379 3.156-1a6.8 6.8 0 0 1-.75.031c-3.914 0-7.062-3.148-7.062-7.062v-.312z"/></svg>