<svg class="svg-icon" width="1em" viewBox="0 0 1024 1024" version="1.1" xmlns="http://www.w3.org/2000/svg" fill="#935138"><path d="M853.333333 341.333333h-128V170.666667H128c-47.146667 0-85.333333 38.186667-85.333333 85.333333v469.333333h85.333333c0 70.613333 57.386667 128 128 128s128-57.386667 128-128h256c0 70.613333 57.386667 128 128 128s128-57.386667 128-128h85.333333V512l-128-170.666667zM256 789.333333c-35.413333 0-64-28.586667-64-64s28.586667-64 64-64 64 28.586667 64 64-28.586667 64-64 64z m576-384l83.84 106.666667H725.333333v-106.666667h106.666667z m-64 384c-35.413333 0-64-28.586667-64-64s28.586667-64 64-64 64 28.586667 64 64-28.586667 64-64 64z"  /></svg>