<svg xmlns="http://www.w3.org/2000/svg" width="939" height="683" fill="#935138" xmlns:v="https://vecta.io/nano"><path d="M810.667 170.667h-128V0H85.333C38.187 0 0 38.187 0 85.333v469.333h85.333c0 70.613 57.387 128 128 128s128-57.387 128-128h256c0 70.613 57.387 128 128 128s128-57.387 128-128h85.333V341.333l-128-170.667zm-597.333 448c-35.413 0-64-28.587-64-64s28.587-64 64-64 64 28.587 64 64-28.587 64-64 64zm576-384l83.84 106.667H682.667V234.667h106.667zm-64 384c-35.413 0-64-28.587-64-64s28.587-64 64-64 64 28.587 64 64-28.587 64-64 64z"/></svg>